Coordinates
version=1
nRows=5
nColumns=40
inDegrees=yes

Units are S.I. units (second, meters, Newtons, ...)
Angles are in degrees.

endheader
time	pelvis_tilt	pelvis_list	pelvis_rotation	pelvis_tx	pelvis_ty	pelvis_tz	hip_flexion_r	hip_adduction_r	hip_rotation_r	knee_angle_r	knee_angle_r_beta	ankle_angle_r	subtalar_angle_r	mtp_angle_r	hip_flexion_l	hip_adduction_l	hip_rotation_l	knee_angle_l	knee_angle_l_beta	ankle_angle_l	subtalar_angle_l	mtp_angle_l	lumbar_extension	lumbar_bending	lumbar_rotation	arm_flex_r	arm_add_r	arm_rot_r	elbow_flex_r	pro_sup_r	wrist_flex_r	wrist_dev_r	arm_flex_l	arm_add_l	arm_rot_l	elbow_flex_l	pro_sup_l	wrist_flex_l	wrist_dev_l
     19.62000000	     -5.08870714	     -4.00562265	     -2.14959312	      0.79864655	      0.92819375	      0.46282998	     28.33122778	     -5.16596367	     -4.70087853	     65.99044981	     65.99044981	      0.55385978	    -17.17163306	      2.01362074	     17.43920583	     -4.45529946	     -6.15607677	     24.07650747	     24.07650747	     13.75309223	    -12.25032350	      2.08965258	    -10.53745052	      5.64861234	      2.30456530	     12.73415214	    -12.20040249	     -5.72819548	     31.98118411	     46.15315102	      0.00000000	      0.00000000	     14.87519612	    -14.59497349	     -2.66729640	     48.53813414	     46.32488859	      0.00000000	      0.00000000
     19.63292857	     -5.14475974	     -4.03207452	     -2.40190594	      0.79795747	      0.92894098	      0.46250565	     29.38304185	     -4.89538983	     -4.71508972	     64.94078980	     64.94078980	      0.56260835	    -16.90138495	      1.76725691	     16.70531111	     -4.47673625	     -6.46708962	     23.50428627	     23.50428627	     13.95185972	    -11.96071929	      2.04180988	    -10.60955674	      5.75581132	      2.34067382	     10.72033034	    -12.29673437	     -5.61817900	     30.65414703	     46.18461737	      0.00000000	      0.00000000	     16.12976406	    -14.98928825	     -3.02118822	     49.67591854	     46.38953432	      0.00000000	      0.00000000
     19.64585714	     -5.21114692	     -4.11213175	     -2.64661541	      0.79735722	      0.92964642	      0.46222658	     30.32503706	     -4.57355205	     -4.81368165	     63.69097248	     63.69097248	      0.50113079	    -16.62977619	      1.67162620	     15.95069883	     -4.55212783	     -6.79285995	     22.87146632	     22.87146632	     14.16621013	    -11.64952694	      1.98371109	    -10.60308710	      5.92283805	      2.31691756	      8.74557102	    -12.41231227	     -5.52657786	     29.44291721	     46.21332698	      0.00000000	      0.00000000	     17.28325320	    -15.33119508	     -3.37542894	     50.85686233	     46.45077624	      0.00000000	      0.00000000
     19.65878571	     -5.26128334	     -4.18316471	     -2.86072364	      0.79664704	      0.93022281	      0.46198681	     31.15022184	     -4.24937769	     -4.89791281	     62.23037393	     62.23037393	      0.45627705	    -16.28008883	      1.50409425	     15.27657080	     -4.62441974	     -7.09647818	     22.38681723	     22.38681723	     14.33239238	    -11.31266130	      1.81889170	    -10.74942787	      6.08142268	      2.29094791	      6.85347088	    -12.47817796	     -5.42263422	     28.14519118	     46.24648448	      0.00000000	      0.00000000	     18.37847581	    -15.77924924	     -3.84458307	     52.22870004	     46.52598465	      0.00000000	      0.00000000
     19.67171429	     -5.31726207	     -4.26723993	     -3.08360426	      0.79601687	      0.93075616	      0.46187156	     31.83636090	     -3.91694185	     -5.04392385	     60.46403648	     60.46403648	      0.43495869	    -15.84330942	      1.39891764	     14.55853404	     -4.70336267	     -7.40452327	     21.80782638	     21.80782638	     14.51814505	    -11.01559839	      1.68273115	    -10.81982080	      6.25239904	      2.21937564	      5.05279167	    -12.55670074	     -5.34650125	     26.97060612	     46.27775965	      0.00000000	      0.00000000	     19.40265588	    -16.20167873	     -4.31774393	     53.53374874	     46.59930369	      0.00000000	      0.00000000
